<?xml version="1.0" standalone="no"?>
<!DOCTYPE svg PUBLIC "-//W3C//DTD SVG 1.1//EN" "http://www.w3.org/Graphics/SVG/1.1/DTD/svg11.dtd" >
<svg xmlns="http://www.w3.org/2000/svg">
<metadata>
This is a custom SVG webfont generated by Font Squirrel.
Copyright   : Copyright c 2010 by Svetoslav Simov All rights reserved
Designer    : Svetoslav Simov
Foundry     : Svetoslav Simov
Foundry URL : httpfontfabriccom
</metadata>
<defs>
<font id="webfont4hwaocBe" horiz-adv-x="1204" >
<font-face units-per-em="2048" ascent="1434" descent="-614" />
<missing-glyph horiz-adv-x="720" />
<glyph unicode=" "  horiz-adv-x="720" />
<glyph unicode="&#x09;" horiz-adv-x="720" />
<glyph unicode="&#xa0;" horiz-adv-x="720" />
<glyph unicode="!" horiz-adv-x="419" d="M66 1434h215v-1119h-215v1119zM168 236q59 0 95 -36t36 -94q0 -47 -37 -82.5t-94 -35.5q-49 0 -86 35.5t-37 82.5q0 57 36 93.5t87 36.5z" />
<glyph unicode="&#x22;" horiz-adv-x="589" d="M4 1430h199v-508h-199v508zM291 1430h198v-508h-198v508z" />
<glyph unicode="$" horiz-adv-x="1126" d="M420 1442v110h205v-110q152 -27 260 -114t127 -238l-203 -21q-14 63 -66.5 108.5t-117.5 55.5v-418q182 -6 303 -102.5t121 -282.5q0 -199 -116 -295t-308 -133v-125h-205v125q-158 27 -279 125t-137 252v14l207 2l2 -2q14 -63 75.5 -119.5t131.5 -74.5v432 q-119 -12 -217.5 46t-146.5 152.5t-43 212t79 218.5q115 149 328 182zM625 608v-409q127 -4 188 103.5t9 211.5t-197 94zM254 1141h-2q-63 -100 -8 -201.5t176 -99.5v395q-117 -28 -166 -94z" />
<glyph unicode="&#x26;" horiz-adv-x="1228" d="M971 1147l-187 -57q-68 152 -239 151q-106 0 -184 -55.5t-80 -149.5q0 -86 51 -144t166 -58h665v-205h-143v-240q0 -176 -128 -286.5t-355 -114.5q-264 -4 -403.5 134t-121.5 329q12 88 65.5 167.5t151.5 118.5q-154 90 -153 297q0 193 140 302.5t329 109.5 q313 0 426 -299zM496 629q-133 4 -202 -54.5t-77 -144.5q-6 -94 77 -168t241 -74q129 0 204.5 57.5t75.5 151.5v232h-319z" />
<glyph unicode="'" horiz-adv-x="288" d="M10 1436h197v-508h-197v508z" />
<glyph unicode="," horiz-adv-x="438" d="M197 -162h-207l149 377h240z" />
<glyph unicode="." horiz-adv-x="319" d="M117 246q57 0 93 -35t36 -92q0 -49 -37 -87t-92 -38q-49 0 -86 39t-37 86q0 55 36 91t87 36z" />
<glyph unicode="0" horiz-adv-x="1130" d="M518 1176q-156 0 -242 -145.5t-86 -346.5t86 -345t242 -144t242 145t86 344q0 201 -86 346.5t-242 145.5zM518 -4q-168 0 -290 102.5t-178 255t-56 330.5t56 331.5t178 256t290 102.5q246 0 385 -205.5t139 -484.5q0 -178 -56 -330.5t-179 -255t-289 -102.5z" />
<glyph unicode="1" horiz-adv-x="550" d="M444 0h-204v1044l-193 -262l-156 113l388 545h165v-1440z" />
<glyph unicode="2" horiz-adv-x="1087" d="M213 961l-207 16q29 205 158 335t342 130q156 0 276.5 -63.5t177 -165t66.5 -216t-47 -229.5t-170 -193l-463 -376h658v-199h-1006v160l674 573h-2q111 80 133 200t-58.5 211t-238.5 91q-127 0 -201 -73.5t-92 -200.5z" />
<glyph unicode="3" horiz-adv-x="1062" d="M313 623v194h215q98 0 147.5 65.5t49.5 147.5q0 100 -81 154.5t-191 54.5q-86 0 -157 -46t-89 -126l-187 45q37 156 159 240t274 84q193 0 334 -105.5t143 -300.5q0 -211 -131 -299q188 -111 184 -334q-2 -168 -138 -291.5t-380 -123.5q-215 0 -337 106.5t-148 267.5 l192 35q14 -92 90 -154.5t203 -62.5q160 0 246 74t77 170q-8 78 -70.5 141.5t-189.5 63.5h-215z" />
<glyph unicode="4" horiz-adv-x="1083" d="M-27 469l760 965h160v-910h117v-200h-117v-324h-205v324h-715v145zM244 520h448v555z" />
<glyph unicode="5" horiz-adv-x="1093" d="M-2 326l190 77q96 -195 299 -194q152 0 235 86t81 205q0 78 -44 147.5t-122 104.5q-250 102 -504 -47l-117 53v682h914v-201h-705v-287q258 84 486 -8q143 -59 221 -179t80 -265q2 -203 -137.5 -351.5t-387.5 -148.5q-360 0 -489 326z" />
<glyph unicode="6" horiz-adv-x="1110" d="M508 778q-150 0 -232.5 -85t-82.5 -201.5t82.5 -199.5t232.5 -83q152 0 233.5 83t81.5 199.5t-81.5 201.5t-233.5 85zM74 778l467 656h254l-351 -494q78 29 176.5 22.5t172.5 -47.5q115 -66 176 -180t61 -243q0 -201 -138 -346.5t-384 -145.5t-384 146.5t-138 345.5 q0 153 88 286z" />
<glyph unicode="7" horiz-adv-x="1038" d="M-14 1434h1009v-142l-706 -1292h-238l672 1231h-737v203z" />
<glyph unicode="8" horiz-adv-x="1091" d="M504 178q147 0 230 72t83 164t-82 160.5t-231 68.5q-145 0 -228 -68.5t-83 -160.5t83 -164t228 -72zM504 1264q-98 0 -175 -59.5t-77 -157.5q0 -82 66.5 -147.5t185.5 -65.5q121 0 187.5 65.5t66.5 149.5q0 96 -78 155.5t-176 59.5zM963 1042q0 -84 -48.5 -170 t-132.5 -122q119 -45 180.5 -137.5t61.5 -196.5q0 -174 -137 -302t-383 -128t-381 123.5t-135 306.5q0 98 65.5 190t182.5 144q-104 43 -146.5 127t-42.5 167q2 190 139.5 296t317.5 106q217 0 338 -120t121 -284z" />
<glyph unicode="9" horiz-adv-x="1122" d="M522.5 662q151.5 0 234.5 86t83 202q0 119 -83 203t-234.5 84t-234.5 -84t-83 -203q0 -117 83 -202.5t234.5 -85.5zM963 662l-471 -662h-256l352 500q-80 -31 -179.5 -25t-170.5 47q-117 68 -179.5 183.5t-62.5 244.5q0 203 139 350.5t387 147.5t388.5 -147.5 t140.5 -350.5q0 -151 -88 -288z" />
<glyph unicode=":" horiz-adv-x="305" d="M109 229q53 0 86.5 -32.5t33.5 -85.5q0 -45 -34.5 -81t-85.5 -36q-47 0 -81 36t-34 81q0 53 33 85.5t82 32.5zM109 788q53 0 86.5 -32.5t33.5 -85.5q0 -47 -34.5 -82t-85.5 -35q-47 0 -81 36t-34 81q0 53 33 85.5t82 32.5z" />
<glyph unicode=";" horiz-adv-x="286" d="M106 788q53 0 87 -32.5t34 -85.5q0 -47 -34.5 -82t-86.5 -35q-47 0 -80.5 36t-33.5 81q0 53 32.5 85.5t81.5 32.5zM-115 -201h207l182 377h-239z" />
<glyph unicode="?" horiz-adv-x="1044" d="M545 465l2 -166h-209v168q0 66 17.5 114t61.5 84.5t72.5 54t96.5 52.5h-2q51 29 76.5 46.5t52 59.5t28.5 99q4 102 -77.5 178t-223.5 76q-207 0 -313 -219l-168 96q72 152 193.5 244t287.5 92q240 0 382.5 -139.5t138.5 -331.5q-2 -70 -22.5 -128.5t-42.5 -92t-72 -71.5 t-71 -50l-81 -45q-39 -20 -49.5 -26.5t-36 -24t-33.5 -34t-8 -36.5zM440 238q59 0 97 -38t38 -98q0 -49 -38.5 -90t-96.5 -41q-53 0 -91 41t-38 90q0 59 37 97.5t92 38.5z" />
<glyph unicode="A" d="M565 1122l-180 -506h356zM993 0l-172 422h-514q-119 -283 -172 -422h-223l575 1452h152l575 -1452h-221z" />
<glyph unicode="B" horiz-adv-x="1167" d="M238 1235v-373h387q63 0 108 38t55 93q5 29 6 58q0 26 -4 53q-9 55 -53.5 93t-107.5 38h-391zM33 1432h596q129 0 217 -64.5t131 -171.5q31 -67 31 -140q0 -38 -9 -78q-25 -116 -127 -190q115 -49 169.5 -146t54.5 -210q0 -174 -111 -303t-305 -129h-647v1432zM238 657 v-456h442q98 0 153.5 68.5t55.5 160.5t-55.5 159.5t-153.5 67.5h-442z" />
<glyph unicode="C" horiz-adv-x="1454" d="M6 713q0 295 205 514q207 213 496 213q246 0 426 -142.5t241 -386.5h-205q-55 158 -178 241t-284 83q-205 0 -352.5 -153.5t-147.5 -368.5q0 -211 147.5 -364.5t352.5 -153.5q164 0 291.5 90t183.5 252h202q-61 -246 -245.5 -396.5t-431.5 -150.5q-293 0 -496 213 q-205 219 -205 510z" />
<glyph unicode="D" horiz-adv-x="1333" d="M242 207h307q236 0 368 150.5t132 357.5t-132.5 358.5t-367.5 151.5h-307v-1018zM35 1432h514q170 0 307 -61.5t222 -163t130 -228.5t45 -264t-45 -263t-130 -228.5t-222 -163t-307 -60.5h-514v1432z" />
<glyph unicode="E" horiz-adv-x="958" d="M233 612v-405h666v-207h-874v1432h872v-207h-664v-404h650v-209h-650z" />
<glyph unicode="F" horiz-adv-x="919" d="M231 612v-612h-206v1432h854v-207h-648v-404h574v-209h-574z" />
<glyph unicode="G" horiz-adv-x="1484" d="M1393 920h-222q-39 160 -172 237.5t-288 77.5q-211 0 -354.5 -147.5t-143.5 -373t143.5 -376t354.5 -150.5q143 0 266 72t184 219h-530v207h772q-16 -188 -39 -248v2q-72 -199 -261.5 -324.5t-391.5 -125.5q-303 0 -504 204.5t-201 520t203 521.5t502 206q109 0 213 -29 t201.5 -88t169 -163.5t98.5 -241.5z" />
<glyph unicode="H" horiz-adv-x="1153" d="M238 1432v-605h606v605h209v-1432h-209v623h-606v-623h-207v1432h207z" />
<glyph unicode="I" horiz-adv-x="796" d="M727 1432v-205h-266v-1020h266v-207h-739v207h266v1020h-266v205h739z" />
<glyph unicode="J" horiz-adv-x="827" d="M741 1432v-811q0 -305 -220 -463t-570 -158v207q258 0 421 104.5t163 309.5v606h-388v205h594z" />
<glyph unicode="K" horiz-adv-x="1075" d="M35 1432h205v-1432h-205v1432zM279 664v104l499 664h260l-546 -711l604 -721h-271z" />
<glyph unicode="L" horiz-adv-x="962" d="M233 1432v-1225h674v-207h-880v1432h206z" />
<glyph unicode="M" horiz-adv-x="1447" d="M246 1010v-1010h-207v1434h168l473 -697l473 697h164v-1434h-205v1010l-375 -557h-116z" />
<glyph unicode="N" d="M240 0h-207v1436l160 -2l698 -1010v1010h205v-1434h-164l-692 1001v-1001z" />
<glyph unicode="O" horiz-adv-x="1552" d="M1247 717q0 215 -151 370q-156 156 -371 156t-367 -156q-154 -154 -153.5 -370.5t153.5 -370.5q152 -156 367 -156t371 156q151 156 151 371zM-4 717q0 299 213 518q213 217 516 217q301 0 518 -217q213 -219 213 -518t-213 -518q-213 -217 -518 -217t-516 217 q-213 219 -213 518z" />
<glyph unicode="P" horiz-adv-x="1079" d="M29 1434h524q219 0 342 -142.5t123 -337t-123 -336t-342 -141.5h-315v-477h-209v1434zM238 682h315q123 0 191.5 80t68.5 190.5t-68.5 191.5t-191.5 81h-315v-543z" />
<glyph unicode="Q" horiz-adv-x="1568" d="M1262 717q0 213 -154 370q-152 156 -369 156q-213 0 -368 -156q-154 -158 -154 -370q0 -215 154 -373q133 -133 314 -156q34 -4 67 -4q145 0 278 80l-397 354h287l243 -221q99 134 99 320zM1552 45v-45h-225l-135 121q-208 -137 -447 -137q-36 0 -72 3q-280 24 -450 212 q-213 233 -213 518q0 299 213 518q213 217 516 217q301 0 518 -217q213 -219 213 -518q0 -246 -155 -449z" />
<glyph unicode="R" horiz-adv-x="1079" d="M315 629v98h242q123 0 191.5 73.5t68.5 176.5q0 100 -68.5 174t-191.5 74h-317v-1225h-205v1434h522q221 0 344 -136.5t123 -320.5q0 -160 -97.5 -284t-273.5 -154l453 -539h-268z" />
<glyph unicode="S" horiz-adv-x="1134" d="M1020 1071l-205 -8q-20 90 -105 137q-81 45 -179 45h-9q-178 -4 -260 -108q-36 -46 -35 -113v-20q2 -43 24.5 -74t49.5 -49.5t76 -30.5t83 -16.5t93 -10.5q88 -10 154.5 -26.5t143.5 -48t127 -90t71 -140.5q10 -51 10 -94q0 -197 -162 -316.5t-371 -119.5 q-115 0 -225.5 42t-194 133t-96.5 212l-2 39l209 4l2 -31v8q10 -94 104.5 -148t204.5 -54q125 0 223.5 64.5t98.5 168.5q0 20 -6 49q-8 39 -37 65.5t-79 41t-91 21.5t-109 13q-80 8 -138 18.5t-129 36t-118 63.5t-81.5 102.5t-41.5 150.5v-2q-1 18 -1 36q0 131 79 236 q70 90 187.5 140.5t246.5 50.5q182 0 321.5 -96.5t166.5 -280.5z" />
<glyph unicode="T" horiz-adv-x="1093" d="M600 -6h-207v1231h-434v209h1073v-209h-432v-1231z" />
<glyph unicode="U" horiz-adv-x="1206" d="M567 -14q-131 0 -248.5 48t-199.5 152.5t-82 243.5v1002h209v-1004q0 -111 98 -173t223 -62q123 0 221.5 63t98.5 174v1002h209v-1004q0 -137 -82 -241.5t-200 -152.5t-247 -48z" />
<glyph unicode="V" horiz-adv-x="1232" d="M567 360l430 1072h222l-576 -1436h-151l-576 1436h225z" />
<glyph unicode="W" horiz-adv-x="1742" d="M1061 -12l-248 694l-244 -694h-153l-477 1444h215l342 -1035l235 670h166l233 -668l345 1033h217l-478 -1444h-153z" />
<glyph unicode="X" horiz-adv-x="1230" d="M-86 1432h254l389 -537l391 537h252l-518 -719l518 -713h-252l-391 537l-389 -537h-254l518 713z" />
<glyph unicode="Y" horiz-adv-x="1161" d="M-102 1432h243l391 -629l392 629h245l-532 -848v-584h-209v584z" />
<glyph unicode="Z" horiz-adv-x="1091" d="M2 1243v189h971l69 -132l-811 -1116h799v-184h-1005l-84 115l827 1128h-766z" />
<glyph unicode="`" horiz-adv-x="503" d="M414 1249h-195l-231 219h278z" />
<glyph unicode="a" d="M565 1122l-180 -506h356zM993 0l-172 422h-514q-119 -283 -172 -422h-223l575 1452h152l575 -1452h-221z" />
<glyph unicode="b" horiz-adv-x="1150" d="M238 1235v-373h387q63 0 108 38t55 93q5 29 6 58q0 26 -4 53q-9 55 -53.5 93t-107.5 38h-391zM33 1432h596q129 0 217 -64.5t131 -171.5q31 -67 31 -140q0 -38 -9 -78q-25 -116 -127 -190q115 -49 169.5 -146t54.5 -210q0 -174 -111 -303t-305 -129h-647v1432zM238 657 v-456h442q98 0 153.5 68.5t55.5 160.5t-55.5 159.5t-153.5 67.5h-442z" />
<glyph unicode="c" horiz-adv-x="1454" d="M6 713q0 295 205 514q207 213 496 213q246 0 426 -142.5t241 -386.5h-205q-55 158 -178 241t-284 83q-205 0 -352.5 -153.5t-147.5 -368.5q0 -211 147.5 -364.5t352.5 -153.5q164 0 291.5 90t183.5 252h202q-61 -246 -245.5 -396.5t-431.5 -150.5q-293 0 -496 213 q-205 219 -205 510z" />
<glyph unicode="d" horiz-adv-x="1333" d="M242 207h307q236 0 368 150.5t132 357.5t-132.5 358.5t-367.5 151.5h-307v-1018zM35 1432h514q170 0 307 -61.5t222 -163t130 -228.5t45 -264t-45 -263t-130 -228.5t-222 -163t-307 -60.5h-514v1432z" />
<glyph unicode="e" horiz-adv-x="958" d="M233 612v-405h666v-207h-874v1432h872v-207h-664v-404h650v-209h-650z" />
<glyph unicode="f" horiz-adv-x="919" d="M231 612v-612h-206v1432h854v-207h-648v-404h574v-209h-574z" />
<glyph unicode="g" horiz-adv-x="1484" d="M1393 920h-222q-39 160 -172 237.5t-288 77.5q-211 0 -354.5 -147.5t-143.5 -373t143.5 -376t354.5 -150.5q143 0 266 72t184 219h-530v207h772q-16 -188 -39 -248v2q-72 -199 -261.5 -324.5t-391.5 -125.5q-303 0 -504 204.5t-201 520t203 521.5t502 206q109 0 213 -29 t201.5 -88t169 -163.5t98.5 -241.5z" />
<glyph unicode="h" horiz-adv-x="1153" d="M238 1432v-605h606v605h209v-1432h-209v623h-606v-623h-207v1432h207z" />
<glyph unicode="i" horiz-adv-x="765" d="M707 1432v-205h-267v-1020h267v-207h-740v207h266v1020h-266v205h740z" />
<glyph unicode="j" horiz-adv-x="843" d="M758 1432v-811q0 -307 -215 -464t-563 -157v195q254 0 412.5 109.5t158.5 316.5v606h-387v205h594z" />
<glyph unicode="k" horiz-adv-x="1075" d="M35 1432h205v-1432h-205v1432zM279 664v104l499 664h260l-546 -711l604 -721h-271z" />
<glyph unicode="l" horiz-adv-x="978" d="M250 1432v-1225h674v-207h-881v1432h207z" />
<glyph unicode="m" horiz-adv-x="1447" d="M246 1010v-1010h-207v1434h168l473 -697l473 697h164v-1434h-205v1010l-375 -557h-116z" />
<glyph unicode="n" d="M240 0h-207v1436l160 -2l698 -1010v1010h205v-1434h-164l-692 1001v-1001z" />
<glyph unicode="o" horiz-adv-x="1552" d="M1247 717q0 215 -151 370q-156 156 -371 156t-367 -156q-154 -154 -153.5 -370.5t153.5 -370.5q152 -156 367 -156t371 156q151 156 151 371zM-4 717q0 299 213 518q213 217 516 217q301 0 518 -217q213 -219 213 -518t-213 -518q-213 -217 -518 -217t-516 217 q-213 219 -213 518z" />
<glyph unicode="p" horiz-adv-x="1091" d="M29 1434h524q219 0 342 -142.5t123 -337t-123 -336t-342 -141.5h-315v-477h-209v1434zM238 682h315q123 0 191.5 80t68.5 190.5t-68.5 191.5t-191.5 81h-315v-543z" />
<glyph unicode="q" horiz-adv-x="1585" d="M1262 717q0 213 -154 370q-152 156 -369 156q-213 0 -368 -156q-154 -158 -154 -370q0 -215 154 -373q133 -133 314 -156q34 -4 67 -4q145 0 278 80l-397 354h287l243 -221q99 134 99 320zM1552 45v-45h-225l-135 121q-208 -137 -447 -137q-36 0 -72 3q-280 24 -450 212 q-213 233 -213 518q0 299 213 518q213 217 516 217q301 0 518 -217q213 -219 213 -518q0 -246 -155 -449z" />
<glyph unicode="r" horiz-adv-x="1087" d="M315 629v98h242q123 0 191.5 73.5t68.5 176.5q0 100 -68.5 174t-191.5 74h-317v-1225h-205v1434h522q221 0 344 -136.5t123 -320.5q0 -160 -97.5 -284t-273.5 -154l453 -539h-268z" />
<glyph unicode="s" horiz-adv-x="1134" d="M1020 1071l-205 -8q-20 90 -105 137q-81 45 -179 45h-9q-178 -4 -260 -108q-36 -46 -35 -113v-20q2 -43 24.5 -74t49.5 -49.5t76 -30.5t83 -16.5t93 -10.5q88 -10 154.5 -26.5t143.5 -48t127 -90t71 -140.5q10 -51 10 -94q0 -197 -162 -316.5t-371 -119.5 q-115 0 -225.5 42t-194 133t-96.5 212l-2 39l209 4l2 -31v8q10 -94 104.5 -148t204.5 -54q125 0 223.5 64.5t98.5 168.5q0 20 -6 49q-8 39 -37 65.5t-79 41t-91 21.5t-109 13q-80 8 -138 18.5t-129 36t-118 63.5t-81.5 102.5t-41.5 150.5v-2q-1 18 -1 36q0 131 79 236 q70 90 187.5 140.5t246.5 50.5q182 0 321.5 -96.5t166.5 -280.5z" />
<glyph unicode="t" horiz-adv-x="1093" d="M600 -6h-207v1247h-434v193h1073v-193h-432v-1247z" />
<glyph unicode="u" horiz-adv-x="1206" d="M567 -14q-131 0 -248.5 48t-199.5 152.5t-82 243.5v1002h209v-1004q0 -111 98 -173t223 -62q123 0 221.5 63t98.5 174v1002h209v-1004q0 -137 -82 -241.5t-200 -152.5t-247 -48z" />
<glyph unicode="v" horiz-adv-x="1232" d="M567 360l430 1072h222l-576 -1436h-151l-576 1436h225z" />
<glyph unicode="w" horiz-adv-x="1742" d="M1065 -8l-252 690l-121 -335l-127 -355h-145l-481 1440h215l342 -1035l235 670h166l233 -668l345 1033h217l-482 -1440h-145z" />
<glyph unicode="x" horiz-adv-x="1230" d="M-86 1432h254l389 -537l391 537h252l-518 -719l518 -713h-252l-391 537l-389 -537h-254l518 713z" />
<glyph unicode="y" horiz-adv-x="1161" d="M-102 1432h243l391 -629l392 629h245l-532 -848v-584h-209v584z" />
<glyph unicode="z" horiz-adv-x="1091" d="M2 1243v189h971l69 -132l-811 -1116h799v-184h-1005l-84 115l827 1128h-766z" />
<glyph unicode="&#xa1;" horiz-adv-x="413" d="M63 -12h216v1118h-216v-1118zM176 1186q-59 0 -95 35.5t-36 93.5q0 47 37 83t94 36q49 0 86 -36t37 -83q0 -57 -36 -93t-87 -36z" />
<glyph unicode="&#xa5;" horiz-adv-x="1161" d="M201 416v149h233l-26 51h-207v142h118l-421 674h243l391 -629l392 629h245l-424 -674h109v-142h-197l-28 -51h225v-149h-217v-416h-209v416h-227z" />
<glyph unicode="&#xa8;" horiz-adv-x="808" d="M184 1509q53 0 87 -33.5t34 -86.5q0 -45 -34.5 -80t-86.5 -35q-47 0 -80.5 34.5t-33.5 80.5q0 53 32.5 86.5t81.5 33.5zM567 1509q53 0 86 -33.5t33 -86.5q0 -43 -36 -79t-83 -36t-81.5 34.5t-34.5 80.5q0 53 33.5 86.5t82.5 33.5z" />
<glyph unicode="&#xaa;" d="M565 1122l-180 -506h356zM993 0l-172 422h-514q-119 -283 -172 -422h-223l575 1452h152l575 -1452h-221z" />
<glyph unicode="&#xb2;" horiz-adv-x="1087" d="M213 961l-207 16q29 205 158 335t342 130q156 0 276.5 -63.5t177 -165t66.5 -216t-47 -229.5t-170 -193l-463 -376h658v-199h-1006v160l674 573h-2q111 80 133 200t-58.5 211t-238.5 91q-127 0 -201 -73.5t-92 -200.5z" />
<glyph unicode="&#xb3;" horiz-adv-x="1062" d="M313 623v194h215q98 0 147.5 65.5t49.5 147.5q0 100 -81 154.5t-191 54.5q-86 0 -157 -46t-89 -126l-187 45q37 156 159 240t274 84q193 0 334 -105.5t143 -300.5q0 -211 -131 -299q188 -111 184 -334q-2 -168 -138 -291.5t-380 -123.5q-215 0 -337 106.5t-148 267.5 l192 35q14 -92 90 -154.5t203 -62.5q160 0 246 74t77 170q-8 78 -70.5 141.5t-189.5 63.5h-215z" />
<glyph unicode="&#xb4;" horiz-adv-x="503" d="M227 1249h-194l147 219h279z" />
<glyph unicode="&#xb7;" horiz-adv-x="337" d="M150 766q53 0 86.5 -33t33.5 -86q0 -47 -34.5 -82t-85.5 -35q-47 0 -81 36t-34 81q0 53 33 86t82 33z" />
<glyph unicode="&#xb9;" horiz-adv-x="550" d="M444 0h-204v1044l-193 -262l-156 113l388 545h165v-1440z" />
<glyph unicode="&#xba;" horiz-adv-x="1552" d="M1247 717q0 215 -151 370q-156 156 -371 156t-367 -156q-154 -154 -153.5 -370.5t153.5 -370.5q152 -156 367 -156t371 156q151 156 151 371zM-4 717q0 299 213 518q213 217 516 217q301 0 518 -217q213 -219 213 -518t-213 -518q-213 -217 -518 -217t-516 217 q-213 219 -213 518z" />
<glyph unicode="&#xbc;" horiz-adv-x="2301" d="M1192 469l760 965h160v-910h117v-200h-117v-324h-205v324h-715v145zM1463 520h448v555zM444 0h-204v1044l-193 -262l-156 113l388 545h165v-1440z" />
<glyph unicode="&#xbd;" horiz-adv-x="2306" d="M1432 961l-207 16q29 205 158 335t342 130q156 0 276.5 -63.5t177 -165t66.5 -216t-47 -229.5t-170 -193l-463 -376h658v-199h-1006v160l674 573h-2q111 80 133 200t-58.5 211t-238.5 91q-127 0 -201 -73.5t-92 -200.5zM444 0h-204v1044l-193 -262l-156 113l388 545h165 v-1440z" />
<glyph unicode="&#xbe;" horiz-adv-x="2813" d="M1704 469l760 965h160v-910h117v-200h-117v-324h-205v324h-715v145zM1975 520h448v555zM313 623v194h215q98 0 147.5 65.5t49.5 147.5q0 100 -81 154.5t-191 54.5q-86 0 -157 -46t-89 -126l-187 45q37 156 159 240t274 84q193 0 334 -105.5t143 -300.5q0 -211 -131 -299 q188 -111 184 -334q-2 -168 -138 -291.5t-380 -123.5q-215 0 -337 106.5t-148 267.5l192 35q14 -92 90 -154.5t203 -62.5q160 0 246 74t77 170q-8 78 -70.5 141.5t-189.5 63.5h-215z" />
<glyph unicode="&#xbf;" horiz-adv-x="1052" d="M420 1120l2 -166q0 -27 -22.5 -51t-39.5 -34l-65 -35l-81 -46q-22 -12 -72 -50t-71.5 -71.5t-42 -92t-22.5 -128.5q-4 -193 138.5 -332t381.5 -139q166 0 288 92.5t194 243.5l-168 97q-106 -219 -314 -220q-141 0 -223 76t-78 178q2 57 29 99.5t52.5 59.5t76.5 46h-2 q68 35 96.5 52.5t72.5 54.5t61.5 85t17.5 113v168h-209zM526 1182q-59 0 -97 37.5t-38 97.5q0 49 39 90t96 41q53 0 91 -41t38 -90q0 -59 -37 -97t-92 -38z" />
<glyph unicode="&#xc0;" d="M565 1122l-180 -506h356zM993 0l-172 422h-514q-119 -283 -172 -422h-223l575 1452h152l575 -1452h-221zM657 1507h-194l-232 219h279z" />
<glyph unicode="&#xc1;" d="M565 1122l-180 -506h356zM993 0l-172 422h-514q-119 -283 -172 -422h-223l575 1452h152l575 -1452h-221zM655 1505h-194l147 219h279z" />
<glyph unicode="&#xc2;" d="M565 1122l-180 -506h356zM993 0l-172 422h-514q-119 -283 -172 -422h-223l575 1452h152l575 -1452h-221zM463 1493h-225l231 205h176l225 -205h-221l-98 80z" />
<glyph unicode="&#xc3;" d="M414 1497l-119 55q61 141 149 154q33 2 69 -12.5t60.5 -29.5t48 -23.5t41 6t29.5 59.5l131 -66q-51 -125 -133 -147q-33 -10 -76 6.5t-75.5 38t-67 15t-57.5 -55.5zM565 1122l-180 -506h356zM993 0l-172 422h-514q-119 -283 -172 -422h-223l575 1452h152l575 -1452h-221z " />
<glyph unicode="&#xc4;" d="M565 1122l-180 -506h356zM993 0l-172 422h-514q-119 -283 -172 -422h-223l575 1452h152l575 -1452h-221zM381 1681q53 0 85 -26.5t32 -71.5q0 -37 -33 -65.5t-84 -28.5q-47 0 -80 28.5t-33 65.5q0 43 32 70.5t81 27.5zM754 1681q51 0 82.5 -26.5t31.5 -71.5 q0 -37 -34.5 -65.5t-79.5 -28.5q-47 0 -81 28.5t-34 65.5q0 43 33 70.5t82 27.5z" />
<glyph unicode="&#xc5;" horiz-adv-x="1216" d="M397 1565q0 72 50.5 123t119.5 51q72 0 123 -52.5t51 -121.5q0 -94 -77 -146l563 -1419h-221l-172 422h-515q-119 -283 -172 -422h-223l559 1413q-86 52 -86 152zM578 1122l-181 -506h357zM635 1565q0 27 -19.5 47t-48.5 20q-25 0 -44 -20.5t-19 -46.5q0 -25 19.5 -44.5 t43.5 -19.5q31 0 49.5 19.5t18.5 44.5z" />
<glyph unicode="&#xc6;" horiz-adv-x="1720" d="M965 510v-303h667v-207h-874v510h-303l-291 -510h-234l803 1434h895v-207h-663v-510h649v-207h-649zM569 717h189l20 454z" />
<glyph unicode="&#xc7;" horiz-adv-x="1431" d="M6 713q0 295 205 514q207 213 496 213q246 0 426 -142.5t241 -386.5h-205q-55 158 -178 241t-284 83q-205 0 -352.5 -153.5t-147.5 -368.5q0 -211 147.5 -364.5t352.5 -153.5q164 0 291.5 90t183.5 252h202q-59 -233 -228 -382t-400 -163l-21 -55q102 -6 155.5 -71 t31 -150t-118.5 -142q-47 -29 -108.5 -34t-119 11.5t-102.5 59.5t-57 102l119 37q74 -94 157 -72q55 14 66 62q14 57 -70 86q-55 18 -141 14l67 156q-238 31 -403 207q-205 219 -205 510z" />
<glyph unicode="&#xc8;" horiz-adv-x="958" d="M233 207v405h650v209h-650v404h664v207h-872v-1432h874v207h-666zM623 1499h-195l-231 219h278z" />
<glyph unicode="&#xc9;" horiz-adv-x="958" d="M233 612v-405h666v-207h-874v1432h872v-207h-664v-404h650v-209h-650zM545 1495h-195l148 219h278z" />
<glyph unicode="&#xca;" horiz-adv-x="958" d="M233 612v-405h666v-207h-874v1432h872v-207h-664v-404h650v-209h-650zM389 1501h-225l231 205h176l226 -205h-222l-98 80z" />
<glyph unicode="&#xcb;" horiz-adv-x="958" d="M233 207v405h650v209h-650v404h664v207h-872v-1432h874v207h-666zM301 1700q53 0 86 -31t33 -78q0 -39 -34 -69.5t-85 -30.5q-45 0 -79 31.5t-34 68.5q0 47 33 78t80 31zM676 1700q53 0 85 -30t32 -79q0 -37 -35 -68.5t-82 -31.5t-80 30.5t-33 69.5q0 47 33 78t80 31z " />
<glyph unicode="&#xcc;" horiz-adv-x="776" d="M717 1227v205h-740v-205h267v-1020h-267v-207h740v207h-266v1020h266zM457 1491h-195l-231 219h278z" />
<glyph unicode="&#xcd;" horiz-adv-x="765" d="M707 1432v-205h-267v-1020h267v-207h-740v207h266v1020h-266v205h740zM424 1497h-195l148 219h278z" />
<glyph unicode="&#xce;" horiz-adv-x="765" d="M707 1432v-205h-267v-1020h267v-207h-740v207h266v1020h-266v205h740zM248 1493h-225l231 205h176l225 -205h-221l-98 80z" />
<glyph unicode="&#xcf;" horiz-adv-x="765" d="M707 1227v205h-740v-205h266v-1020h-266v-207h740v207h-267v1020h267zM158 1696q51 0 83.5 -30t32.5 -77q0 -39 -33.5 -69.5t-82.5 -30.5q-47 0 -80 30.5t-33 69.5q0 47 32 77t81 30zM530 1696q51 0 83 -30t32 -77q0 -37 -35 -68.5t-80 -31.5q-47 0 -80.5 30.5 t-33.5 69.5q0 47 32.5 77t81.5 30z" />
<glyph unicode="&#xd1;" d="M444 1487l-122 51q33 82 63.5 122t73.5 48q39 4 86 -15.5t75.5 -38t54 -9t38.5 64.5l135 -59q-51 -137 -125 -166q-33 -10 -78 7t-77.5 38.5t-68 14.5t-55.5 -58zM240 0h-207v1436l160 -2l698 -1010v1010h205v-1434h-164l-692 1001v-1001z" />
<glyph unicode="&#xd2;" horiz-adv-x="1552" d="M1247 717q0 -215 -151 -371q-156 -156 -371 -156t-367 156q-154 154 -153.5 371t153.5 370q152 156 367 156t371 -156q151 -155 151 -370zM-4 717q0 -299 213 -518q211 -217 516 -217t518 217q213 219 213 518t-213 518q-217 217 -518 217q-303 0 -516 -217 q-213 -219 -213 -518zM852 1505h-195l-231 219h279z" />
<glyph unicode="&#xd3;" horiz-adv-x="1552" d="M1247 717q0 215 -151 370q-156 156 -371 156t-367 -156q-154 -154 -153.5 -370.5t153.5 -370.5q152 -156 367 -156t371 156q151 156 151 371zM-4 717q0 299 213 518q213 217 516 217q301 0 518 -217q213 -219 213 -518t-213 -518q-213 -217 -518 -217t-516 217 q-213 219 -213 518zM801 1503h-195l148 219h278z" />
<glyph unicode="&#xd4;" horiz-adv-x="1552" d="M1247 717q0 215 -151 370q-156 156 -371 156t-367 -156q-154 -154 -153.5 -370.5t153.5 -370.5q152 -156 367 -156t371 156q151 156 151 371zM-4 717q0 299 213 518q213 217 516 217q301 0 518 -217q213 -219 213 -518t-213 -518q-213 -217 -518 -217t-516 217 q-213 219 -213 518zM643 1499h-225l231 205h176l226 -205h-222l-98 80z" />
<glyph unicode="&#xd5;" horiz-adv-x="1552" d="M584 1505l-125 45q63 143 141 154q39 4 86 -13.5t76 -34t54.5 -8t39.5 57.5l135 -49q-59 -131 -129 -154q-33 -10 -78 5.5t-78.5 35t-67.5 14t-54 -52.5zM1247 717q0 215 -151 370q-156 156 -371 156t-367 -156q-154 -154 -153.5 -370.5t153.5 -370.5q152 -156 367 -156 t371 156q151 156 151 371zM-4 717q0 299 213 518q213 217 516 217q301 0 518 -217q213 -219 213 -518t-213 -518q-213 -217 -518 -217t-516 217q-213 219 -213 518z" />
<glyph unicode="&#xd6;" horiz-adv-x="1552" d="M1247 717q0 -215 -151 -371q-156 -156 -371 -156t-367 156q-154 154 -153.5 371t153.5 370q152 156 367 156t371 -156q151 -155 151 -370zM-4 717q0 -299 213 -518q211 -217 516 -217t518 217q213 219 213 518t-213 518q-217 217 -518 217q-303 0 -516 -217 q-213 -219 -213 -518zM545 1694q53 0 86 -29t33 -74q0 -39 -34 -68.5t-85 -29.5q-47 0 -80 29.5t-33 68.5q0 45 32 74t81 29zM922 1694q53 0 85.5 -28t32.5 -75q0 -37 -35.5 -67.5t-83 -30.5t-81 30.5t-33.5 67.5q0 45 33 74t82 29z" />
<glyph unicode="&#xd8;" horiz-adv-x="1556" d="M8 717q0 299 213 518q213 217 516 217q174 0 310 -68l67 105l229 2l-135 -217q260 -225 260 -557q0 -299 -213 -518q-211 -217 -518 -217q-162 0 -311 67l-86 -137h-227l155 250l-47 39v-2q-213 219 -213 518zM1260 717q0 221 -164 385l-559 -871q84 -41 200 -41 q215 0 371 156q152 156 152 371zM737 1243q-215 0 -366 -156q-154 -158 -154 -370.5t154 -370.5v-2l6 -4l4 -4l553 872q-93 35 -197 35z" />
<glyph unicode="&#xd9;" horiz-adv-x="1206" d="M567 -14q129 0 247 48t200 152.5t82 241.5v1004h-209v-1002q0 -111 -98.5 -174t-221.5 -63q-125 0 -223 62t-98 173v1004h-209v-1002q0 -139 82 -243.5t199.5 -152.5t248.5 -48zM729 1489h-194l-232 219h279z" />
<glyph unicode="&#xda;" horiz-adv-x="1206" d="M567 -14q-131 0 -248.5 48t-199.5 152.5t-82 243.5v1002h209v-1004q0 -111 98 -173t223 -62q123 0 221.5 63t98.5 174v1002h209v-1004q0 -137 -82 -241.5t-200 -152.5t-247 -48zM623 1493h-195l147 219h279z" />
<glyph unicode="&#xdb;" horiz-adv-x="1206" d="M567 -14q-131 0 -248.5 48t-199.5 152.5t-82 243.5v1002h209v-1004q0 -111 98 -173t223 -62q123 0 221.5 63t98.5 174v1002h209v-1004q0 -137 -82 -241.5t-200 -152.5t-247 -48zM469 1493h-225l231 205h176l226 -205h-222l-98 80z" />
<glyph unicode="&#xdc;" horiz-adv-x="1206" d="M567 -14q129 0 247 48t200 152.5t82 241.5v1004h-209v-1002q0 -111 -98.5 -174t-221.5 -63q-125 0 -223 62t-98 173v1004h-209v-1002q0 -139 82 -243.5t199.5 -152.5t248.5 -48zM381 1700q53 0 87 -30t34 -79q0 -41 -35 -71.5t-86 -30.5q-45 0 -79 31.5t-34 70.5 q0 47 33 78t80 31zM762 1700q53 0 86 -30t33 -79q0 -39 -36 -70.5t-83 -31.5t-81 31.5t-34 70.5q0 49 33 79t82 30z" />
<glyph unicode="&#xdd;" horiz-adv-x="1161" d="M-102 1432h243l391 -629l392 629h245l-532 -848v-584h-209v584zM602 1495h-194l147 219h279z" />
<glyph unicode="&#xe0;" d="M565 1122l-180 -506h356zM993 0l-172 422h-514q-119 -283 -172 -422h-223l575 1452h152l575 -1452h-221zM657 1507h-194l-232 219h279z" />
<glyph unicode="&#xe1;" d="M565 1122l-180 -506h356zM993 0l-172 422h-514q-119 -283 -172 -422h-223l575 1452h152l575 -1452h-221zM655 1505h-194l147 219h279z" />
<glyph unicode="&#xe2;" d="M565 1122l-180 -506h356zM993 0l-172 422h-514q-119 -283 -172 -422h-223l575 1452h152l575 -1452h-221zM463 1493h-225l231 205h176l225 -205h-221l-98 80z" />
<glyph unicode="&#xe3;" d="M414 1497l-119 55q61 141 149 154q33 2 69 -12.5t60.5 -29.5t48 -23.5t41 6t29.5 59.5l131 -66q-51 -125 -133 -147q-33 -10 -76 6.5t-75.5 38t-67 15t-57.5 -55.5zM565 1122l-180 -506h356zM993 0l-172 422h-514q-119 -283 -172 -422h-223l575 1452h152l575 -1452h-221z " />
<glyph unicode="&#xe4;" d="M565 1122l-180 -506h356zM993 0l-172 422h-514q-119 -283 -172 -422h-223l575 1452h152l575 -1452h-221zM381 1681q53 0 85 -26.5t32 -71.5q0 -37 -33 -65.5t-84 -28.5q-47 0 -80 28.5t-33 65.5q0 43 32 70.5t81 27.5zM754 1681q51 0 82.5 -26.5t31.5 -71.5 q0 -37 -34.5 -65.5t-79.5 -28.5q-47 0 -81 28.5t-34 65.5q0 43 33 70.5t82 27.5z" />
<glyph unicode="&#xe5;" horiz-adv-x="1216" d="M397 1565q0 72 50.5 123t119.5 51q72 0 123 -52.5t51 -121.5q0 -94 -77 -146l563 -1419h-221l-172 422h-515q-119 -283 -172 -422h-223l559 1413q-86 52 -86 152zM578 1122l-181 -506h357zM635 1565q0 27 -19.5 47t-48.5 20q-25 0 -44 -20.5t-19 -46.5q0 -25 19.5 -44.5 t43.5 -19.5q31 0 49.5 19.5t18.5 44.5z" />
<glyph unicode="&#xe6;" horiz-adv-x="1720" d="M965 510v-303h667v-207h-874v510h-303l-291 -510h-234l803 1434h895v-207h-663v-510h649v-207h-649zM569 717h189l20 454z" />
<glyph unicode="&#xe7;" horiz-adv-x="1431" d="M6 713q0 295 205 514q207 213 496 213q246 0 426 -142.5t241 -386.5h-205q-55 158 -178 241t-284 83q-205 0 -352.5 -153.5t-147.5 -368.5q0 -211 147.5 -364.5t352.5 -153.5q164 0 291.5 90t183.5 252h202q-59 -233 -228 -382t-400 -163l-21 -55q102 -6 155.5 -71 t31 -150t-118.5 -142q-47 -29 -108.5 -34t-119 11.5t-102.5 59.5t-57 102l119 37q74 -94 157 -72q55 14 66 62q14 57 -70 86q-55 18 -141 14l67 156q-238 31 -403 207q-205 219 -205 510z" />
<glyph unicode="&#xe8;" horiz-adv-x="958" d="M233 207v405h650v209h-650v404h664v207h-872v-1432h874v207h-666zM623 1499h-195l-231 219h278z" />
<glyph unicode="&#xe9;" horiz-adv-x="958" d="M233 612v-405h666v-207h-874v1432h872v-207h-664v-404h650v-209h-650zM545 1495h-195l148 219h278z" />
<glyph unicode="&#xea;" horiz-adv-x="958" d="M233 612v-405h666v-207h-874v1432h872v-207h-664v-404h650v-209h-650zM389 1501h-225l231 205h176l226 -205h-222l-98 80z" />
<glyph unicode="&#xeb;" horiz-adv-x="958" d="M233 207v405h650v209h-650v404h664v207h-872v-1432h874v207h-666zM301 1700q53 0 86 -31t33 -78q0 -39 -34 -69.5t-85 -30.5q-45 0 -79 31.5t-34 68.5q0 47 33 78t80 31zM676 1700q53 0 85 -30t32 -79q0 -37 -35 -68.5t-82 -31.5t-80 30.5t-33 69.5q0 47 33 78t80 31z " />
<glyph unicode="&#xec;" horiz-adv-x="776" d="M717 1227v205h-740v-205h267v-1020h-267v-207h740v207h-266v1020h266zM457 1491h-195l-231 219h278z" />
<glyph unicode="&#xed;" horiz-adv-x="765" d="M707 1432v-205h-267v-1020h267v-207h-740v207h266v1020h-266v205h740zM424 1497h-195l148 219h278z" />
<glyph unicode="&#xee;" horiz-adv-x="765" d="M707 1432v-205h-267v-1020h267v-207h-740v207h266v1020h-266v205h740zM248 1493h-225l231 205h176l225 -205h-221l-98 80z" />
<glyph unicode="&#xef;" horiz-adv-x="765" d="M707 1227v205h-740v-205h266v-1020h-266v-207h740v207h-267v1020h267zM158 1696q51 0 83.5 -30t32.5 -77q0 -39 -33.5 -69.5t-82.5 -30.5q-47 0 -80 30.5t-33 69.5q0 47 32 77t81 30zM530 1696q51 0 83 -30t32 -77q0 -37 -35 -68.5t-80 -31.5q-47 0 -80.5 30.5 t-33.5 69.5q0 47 32.5 77t81.5 30z" />
<glyph unicode="&#xf1;" d="M444 1487l-122 51q33 82 63.5 122t73.5 48q39 4 86 -15.5t75.5 -38t54 -9t38.5 64.5l135 -59q-51 -137 -125 -166q-33 -10 -78 7t-77.5 38.5t-68 14.5t-55.5 -58zM240 0h-207v1436l160 -2l698 -1010v1010h205v-1434h-164l-692 1001v-1001z" />
<glyph unicode="&#xf2;" horiz-adv-x="1552" d="M1247 717q0 -215 -151 -371q-156 -156 -371 -156t-367 156q-154 154 -153.5 371t153.5 370q152 156 367 156t371 -156q151 -155 151 -370zM-4 717q0 -299 213 -518q211 -217 516 -217t518 217q213 219 213 518t-213 518q-217 217 -518 217q-303 0 -516 -217 q-213 -219 -213 -518zM852 1505h-195l-231 219h279z" />
<glyph unicode="&#xf3;" horiz-adv-x="1552" d="M1247 717q0 215 -151 370q-156 156 -371 156t-367 -156q-154 -154 -153.5 -370.5t153.5 -370.5q152 -156 367 -156t371 156q151 156 151 371zM-4 717q0 299 213 518q213 217 516 217q301 0 518 -217q213 -219 213 -518t-213 -518q-213 -217 -518 -217t-516 217 q-213 219 -213 518zM801 1503h-195l148 219h278z" />
<glyph unicode="&#xf4;" horiz-adv-x="1552" d="M1247 717q0 215 -151 370q-156 156 -371 156t-367 -156q-154 -154 -153.5 -370.5t153.5 -370.5q152 -156 367 -156t371 156q151 156 151 371zM-4 717q0 299 213 518q213 217 516 217q301 0 518 -217q213 -219 213 -518t-213 -518q-213 -217 -518 -217t-516 217 q-213 219 -213 518zM643 1499h-225l231 205h176l226 -205h-222l-98 80z" />
<glyph unicode="&#xf5;" horiz-adv-x="1552" d="M584 1505l-125 45q63 143 141 154q39 4 86 -13.5t76 -34t54.5 -8t39.5 57.5l135 -49q-59 -131 -129 -154q-33 -10 -78 5.5t-78.5 35t-67.5 14t-54 -52.5zM1247 717q0 215 -151 370q-156 156 -371 156t-367 -156q-154 -154 -153.5 -370.5t153.5 -370.5q152 -156 367 -156 t371 156q151 156 151 371zM-4 717q0 299 213 518q213 217 516 217q301 0 518 -217q213 -219 213 -518t-213 -518q-213 -217 -518 -217t-516 217q-213 219 -213 518z" />
<glyph unicode="&#xf6;" horiz-adv-x="1552" d="M1247 717q0 -215 -151 -371q-156 -156 -371 -156t-367 156q-154 154 -153.5 371t153.5 370q152 156 367 156t371 -156q151 -155 151 -370zM-4 717q0 -299 213 -518q211 -217 516 -217t518 217q213 219 213 518t-213 518q-217 217 -518 217q-303 0 -516 -217 q-213 -219 -213 -518zM545 1694q53 0 86 -29t33 -74q0 -39 -34 -68.5t-85 -29.5q-47 0 -80 29.5t-33 68.5q0 45 32 74t81 29zM922 1694q53 0 85.5 -28t32.5 -75q0 -37 -35.5 -67.5t-83 -30.5t-81 30.5t-33.5 67.5q0 45 33 74t82 29z" />
<glyph unicode="&#xf8;" horiz-adv-x="1556" d="M8 717q0 299 213 518q213 217 516 217q174 0 310 -68l67 105l229 2l-135 -217q260 -225 260 -557q0 -299 -213 -518q-211 -217 -518 -217q-162 0 -311 67l-86 -137h-227l155 250l-47 39v-2q-213 219 -213 518zM1260 717q0 221 -164 385l-559 -871q84 -41 200 -41 q215 0 371 156q152 156 152 371zM737 1243q-215 0 -366 -156q-154 -158 -154 -370.5t154 -370.5v-2l6 -4l4 -4l553 872q-93 35 -197 35z" />
<glyph unicode="&#xf9;" horiz-adv-x="1206" d="M567 -14q129 0 247 48t200 152.5t82 241.5v1004h-209v-1002q0 -111 -98.5 -174t-221.5 -63q-125 0 -223 62t-98 173v1004h-209v-1002q0 -139 82 -243.5t199.5 -152.5t248.5 -48zM729 1489h-194l-232 219h279z" />
<glyph unicode="&#xfa;" horiz-adv-x="1206" d="M567 -14q-131 0 -248.5 48t-199.5 152.5t-82 243.5v1002h209v-1004q0 -111 98 -173t223 -62q123 0 221.5 63t98.5 174v1002h209v-1004q0 -137 -82 -241.5t-200 -152.5t-247 -48zM623 1493h-195l147 219h279z" />
<glyph unicode="&#xfb;" horiz-adv-x="1206" d="M567 -14q-131 0 -248.5 48t-199.5 152.5t-82 243.5v1002h209v-1004q0 -111 98 -173t223 -62q123 0 221.5 63t98.5 174v1002h209v-1004q0 -137 -82 -241.5t-200 -152.5t-247 -48zM469 1493h-225l231 205h176l226 -205h-222l-98 80z" />
<glyph unicode="&#xfc;" horiz-adv-x="1206" d="M567 -14q129 0 247 48t200 152.5t82 241.5v1004h-209v-1002q0 -111 -98.5 -174t-221.5 -63q-125 0 -223 62t-98 173v1004h-209v-1002q0 -139 82 -243.5t199.5 -152.5t248.5 -48zM381 1700q53 0 87 -30t34 -79q0 -41 -35 -71.5t-86 -30.5q-45 0 -79 31.5t-34 70.5 q0 47 33 78t80 31zM762 1700q53 0 86 -30t33 -79q0 -39 -36 -70.5t-83 -31.5t-81 31.5t-34 70.5q0 49 33 79t82 30z" />
<glyph unicode="&#xfd;" horiz-adv-x="1161" d="M-102 1432h243l391 -629l392 629h245l-532 -848v-584h-209v584zM602 1495h-194l147 219h279z" />
<glyph unicode="&#xff;" horiz-adv-x="1161" d="M141 1432h-243l530 -848v-584h209v584l532 848h-245l-392 -629zM326 1714q53 0 86.5 -33.5t33.5 -87.5q0 -45 -34.5 -79.5t-85.5 -34.5q-47 0 -81 34.5t-34 79.5q0 53 33 87t82 34zM709 1714q53 0 85.5 -33.5t32.5 -87.5q0 -43 -35.5 -78.5t-82.5 -35.5t-82 34.5 t-35 79.5q0 53 34 87t83 34z" />
<glyph unicode="&#x152;" horiz-adv-x="1697" d="M952 612v-409h666v-207h-760q-68 -10 -131 -10q-311 0 -522 207.5t-211 523t211 523.5t522 208q61 0 113 -8h774v-207h-662v-412h647v-209h-647zM727 1257q-221 -2 -372.5 -159.5t-151.5 -380.5q0 -225 151.5 -381t372.5 -156h10h6v1077h-16z" />
<glyph unicode="&#x153;" horiz-adv-x="1697" d="M952 612v-409h666v-207h-760q-68 -10 -131 -10q-311 0 -522 207.5t-211 523t211 523.5t522 208q61 0 113 -8h774v-207h-662v-412h647v-209h-647zM727 1257q-221 -2 -372.5 -159.5t-151.5 -380.5q0 -225 151.5 -381t372.5 -156h10h6v1077h-16z" />
<glyph unicode="&#x178;" horiz-adv-x="1161" d="M141 1432h-243l530 -848v-584h209v584l532 848h-245l-392 -629zM326 1714q53 0 86.5 -33.5t33.5 -87.5q0 -45 -34.5 -79.5t-85.5 -34.5q-47 0 -81 34.5t-34 79.5q0 53 33 87t82 34zM709 1714q53 0 85.5 -33.5t32.5 -87.5q0 -43 -35.5 -78.5t-82.5 -35.5t-82 34.5 t-35 79.5q0 53 34 87t83 34z" />
<glyph unicode="&#x2c6;" horiz-adv-x="638" d="M213 1294h-225l231 205h176l226 -205h-222l-98 80z" />
<glyph unicode="&#x2dc;" horiz-adv-x="712" d="M180 1251l-123 52q63 158 138 170q39 4 86 -15.5t75.5 -38t54 -9.5t38.5 65l133 -60q-55 -143 -123 -170q-27 -10 -62 1t-64.5 28.5t-58 30t-53.5 1t-41 -54.5z" />
<glyph unicode="&#x2000;" horiz-adv-x="868" />
<glyph unicode="&#x2001;" horiz-adv-x="1738" />
<glyph unicode="&#x2002;" horiz-adv-x="868" />
<glyph unicode="&#x2003;" horiz-adv-x="1738" />
<glyph unicode="&#x2004;" horiz-adv-x="579" />
<glyph unicode="&#x2005;" horiz-adv-x="434" />
<glyph unicode="&#x2006;" horiz-adv-x="288" />
<glyph unicode="&#x2007;" horiz-adv-x="288" />
<glyph unicode="&#x2008;" horiz-adv-x="217" />
<glyph unicode="&#x2009;" horiz-adv-x="346" />
<glyph unicode="&#x200a;" horiz-adv-x="96" />
<glyph unicode="&#x2013;" horiz-adv-x="1024" d="M205 512v205h614v-205h-614z" />
<glyph unicode="&#x2014;" horiz-adv-x="2048" d="M205 512v205h1638v-205h-1638z" />
<glyph unicode="&#x2018;" horiz-adv-x="503" d="M414 1249h-195l-231 219h278z" />
<glyph unicode="&#x2019;" horiz-adv-x="288" d="M10 1436h197v-508h-197v508z" />
<glyph unicode="&#x201c;" horiz-adv-x="589" d="M4 1430h199v-508h-199v508zM291 1430h198v-508h-198v508z" />
<glyph unicode="&#x201d;" horiz-adv-x="589" d="M4 1430h199v-508h-199v508zM291 1430h198v-508h-198v508z" />
<glyph unicode="&#x2026;" horiz-adv-x="960" d="M143 231q53 0 87 -32.5t34 -85.5q0 -45 -34.5 -81t-86.5 -36q-47 0 -80.5 36t-33.5 81q0 53 32.5 85.5t81.5 32.5zM455 231q53 0 85.5 -32.5t32.5 -85.5q0 -45 -33.5 -81t-84.5 -36q-47 0 -82 36t-35 81q0 53 34 85.5t83 32.5zM772 231q53 0 86 -32.5t33 -85.5 q0 -45 -34 -81t-85 -36q-47 0 -82 36t-35 81q0 53 34 85.5t83 32.5z" />
<glyph unicode="&#x202f;" horiz-adv-x="346" />
<glyph unicode="&#x2044;" horiz-adv-x="667" />
<glyph unicode="&#x205f;" horiz-adv-x="434" />
<glyph unicode="&#x20ac;" horiz-adv-x="1511" d="M-25 731v141h93q45 201 188 355q207 213 496 213q246 0 426 -142.5t241 -386.5h-205q-55 158 -178 241t-284 83q-205 0 -353 -154q-90 -98 -125 -209h355v-141h-377v-18v-33h377v-150h-344q35 -98 114 -182q147 -154 353 -153q164 0 291.5 90t183.5 252h203 q-61 -246 -246 -396.5t-432 -150.5q-293 0 -496 213q-133 141 -182 327h-99v150h76v33v18h-76z" />
<glyph unicode="&#x2122;" horiz-adv-x="2541" d="M1340 1010v-1010h-207v1434h168l473 -697l473 697h164v-1434h-205v1010l-375 -557h-116zM600 -6h-207v1231h-434v209h1073v-209h-432v-1231z" />
<glyph unicode="&#xe000;" horiz-adv-x="1430" d="M0 1430h1430v-1430h-1430v1430z" />
<glyph unicode="&#xfb01;" horiz-adv-x="1533" d="M240 612v-612h-207v1432h854v-207h-647v-404h573v-209h-573zM1456 1432v-205h-266v-1032h266v-195h-739v195h266v1237h473z" />
<glyph unicode="&#xfb02;" horiz-adv-x="1923" d="M250 612v-612h-207v1432h854v-207h-647v-404h573v-209h-573zM1184 1432v-1225h674v-207h-881v1432h207z" />
<glyph unicode="&#xfb03;" horiz-adv-x="2605" d="M2546 1432v-205h-267v-1020h267v-207h-740v207h266v1020h-266v205h740zM1151 612v-612h-206v1432h854v-207h-648v-404h574v-209h-574zM231 612v-612h-206v1432h854v-207h-648v-404h574v-209h-574z" />
<glyph unicode="&#xfb04;" horiz-adv-x="2818" d="M2089 1432v-1225h674v-207h-881v1432h207zM1151 612v-612h-206v1432h854v-207h-648v-404h574v-209h-574zM231 612v-612h-206v1432h854v-207h-648v-404h574v-209h-574z" />
</font>
</defs>
</svg>
